<?xml version="1.0" encoding="utf-8"?>
<!-- Generator: Adobe Illustrator 23.0.6, SVG Export Plug-In . SVG Version: 6.00 Build 0)  -->
<svg version="1.1" id="Layer_1" xmlns="http://www.w3.org/2000/svg" xmlns:xlink="http://www.w3.org/1999/xlink" x="0px" y="0px"
	 viewBox="0 0 169.3 52.1" style="enable-background:new 0 0 169.3 52.1;" xml:space="preserve">
<style type="text/css">
	.st0{fill:#FFFFFF;}
	.st1{font-family:'Bebas-Regular';}
	.st2{font-size:27.75px;}
	.st3{letter-spacing:3;}
	.st4{fill:#DA1C5C;}
</style>
<title>Asset 8</title>
<g>
	<g id="Layer_1-2">
		<path class="st0" d="M2.8,32.1L20.2,0l13.3,7.2L16.1,39.3L2.8,32.1z M2.8,42.9L3,47.6l4-2.3L2.8,42.9z M2.7,41.3l5.7,3.2l6.7-3.9
			l-12.9-7L2.7,41.3z"/>
		<g>
			<text transform="matrix(1 0 0 1 39.78 41.65)" class="st0 st1 st2 st3">InvE</text>
			<text transform="matrix(1 0 0 1 96.56 41.65)" class="st0 st1 st2 st3">S</text>
			<text transform="matrix(1 0 0 1 111.54 41.65)" class="st0 st1 st2 st3">t</text>
			<text transform="matrix(1 0 0 1 126 41.65)" class="st4 st1 st2 st3">ED</text>
		</g>
		<polygon class="st0" points="167.8,7.8 90.1,7.8 90.1,9.7 167.8,9.7 167.8,49.3 2.8,49.3 2.8,51.2 167.8,51.2 169.3,51.2 
			169.3,49.3 169.3,9.7 169.3,7.8 		"/>
		<path class="st0" d="M5.6,49.3c0,1.6-1.2,2.8-2.8,2.9c-1.6,0-2.8-1.2-2.9-2.8c0-1.6,1.2-2.8,2.8-2.9h0.1
			C4.4,46.5,5.6,47.7,5.6,49.3z"/>
	</g>
</g>
</svg>
